<svg width="27" height="27" viewBox="0 0 27 27" fill="none" xmlns="http://www.w3.org/2000/svg">
<path d="M12.6343 13.2276C12.6343 13.5507 12.7626 13.8606 12.9911 14.089C13.2195 14.3175 13.5294 14.4458 13.8525 14.4458C14.1756 14.4458 14.4854 14.3175 14.7139 14.089C14.9424 13.8606 15.0707 13.5507 15.0707 13.2276C15.0707 12.9045 14.9424 12.5946 14.7139 12.3662C14.4854 12.1377 14.1756 12.0094 13.8525 12.0094C13.5294 12.0094 13.2195 12.1377 12.9911 12.3662C12.7626 12.5946 12.6343 12.9045 12.6343 13.2276ZM17.7102 13.2276C17.7102 13.5507 17.8386 13.8606 18.067 14.089C18.2955 14.3175 18.6054 14.4458 18.9285 14.4458C19.2515 14.4458 19.5614 14.3175 19.7899 14.089C20.0183 13.8606 20.1467 13.5507 20.1467 13.2276C20.1467 12.9045 20.0183 12.5946 19.7899 12.3662C19.5614 12.1377 19.2515 12.0094 18.9285 12.0094C18.6054 12.0094 18.2955 12.1377 18.067 12.3662C17.8386 12.5946 17.7102 12.9045 17.7102 13.2276ZM7.55829 13.2276C7.55829 13.5507 7.68664 13.8606 7.9151 14.089C8.14356 14.3175 8.45342 14.4458 8.77652 14.4458C9.09962 14.4458 9.40948 14.3175 9.63794 14.089C9.8664 13.8606 9.99475 13.5507 9.99475 13.2276C9.99475 12.9045 9.8664 12.5946 9.63794 12.3662C9.40948 12.1377 9.09962 12.0094 8.77652 12.0094C8.45342 12.0094 8.14356 12.1377 7.9151 12.3662C7.68664 12.5946 7.55829 12.9045 7.55829 13.2276ZM24.3394 8.82166C23.7659 7.45877 22.9435 6.23546 21.8954 5.18473C20.8545 4.14009 19.6189 3.30973 18.2584 2.74066C16.8625 2.15438 15.3804 1.85744 13.8525 1.85744H13.8017C12.2637 1.86505 10.7739 2.16961 9.37295 2.76857C8.02415 3.34348 6.8001 4.17532 5.76901 5.21773C4.73097 6.26591 3.91628 7.48415 3.35285 8.84197C2.76911 10.248 2.47471 11.7429 2.48232 13.2809C2.49093 15.0435 2.90792 16.78 3.70055 18.3543V22.2121C3.70055 22.5217 3.82355 22.8186 4.0425 23.0376C4.26144 23.2565 4.55839 23.3795 4.86803 23.3795H8.7283C10.3026 24.1722 12.0392 24.5892 13.8017 24.5978H13.855C15.3753 24.5978 16.8498 24.3034 18.2381 23.7272C19.5917 23.165 20.8227 22.3443 21.8624 21.3111C22.9105 20.273 23.7354 19.0599 24.3115 17.7071C24.9105 16.3062 25.215 14.8164 25.2227 13.2784C25.2303 11.7327 24.9308 10.2328 24.3394 8.82166ZM20.5045 19.938C18.7254 21.6994 16.3651 22.6689 13.8525 22.6689H13.8093C12.2789 22.6613 10.7587 22.2806 9.41609 21.5649L9.2029 21.4507H5.62942V17.8772L5.51521 17.664C4.7995 16.3214 4.4188 14.8012 4.41119 13.2707C4.40104 10.7404 5.36801 8.36483 7.14206 6.57555C8.91357 4.78627 11.2815 3.79646 13.8119 3.7863H13.855C15.124 3.7863 16.3549 4.03249 17.5148 4.51978C18.6467 4.99438 19.6619 5.6771 20.535 6.55017C21.4055 7.4207 22.0908 8.43843 22.5654 9.57037C23.0578 10.7429 23.3039 11.9865 23.2989 13.2707C23.2836 15.7986 22.2913 18.1665 20.5045 19.938Z" fill="white"/>
</svg>
