<svg width="27" height="27" viewBox="0 0 27 27" fill="none" xmlns="http://www.w3.org/2000/svg">
<path d="M16.2888 8.4201L21.9739 8.4201V10.0444H16.2888V8.4201ZM16.2888 12.4809H21.9739V14.1052H16.2888V12.4809ZM16.2888 16.5417H21.9739V18.166H16.2888V16.5417ZM5.73077 8.4201H11.4159V10.0444H5.73077V8.4201ZM5.73077 12.4809H11.4159V14.1052H5.73077V12.4809ZM5.73077 16.5417H11.4159V18.166H5.73077V16.5417Z" fill="white"/>
<path d="M23.5982 4.35934L4.10649 4.35934C3.67583 4.35977 3.26293 4.53104 2.9584 4.83557C2.65388 5.14009 2.48261 5.55299 2.48218 5.98365L2.48218 20.6024C2.48261 21.0331 2.65388 21.446 2.9584 21.7505C3.26293 22.055 3.67583 22.2263 4.10649 22.2267H23.5982C24.0289 22.2263 24.4418 22.055 24.7463 21.7505C25.0508 21.446 25.2221 21.0331 25.2225 20.6024V5.98365C25.2221 5.55299 25.0508 5.14009 24.7463 4.83557C24.4418 4.53104 24.0289 4.35977 23.5982 4.35934ZM4.10649 5.98365L13.0402 5.98365L13.0402 20.6024H4.10649L4.10649 5.98365ZM14.6645 20.6024L14.6645 5.98365H23.5982V20.6024H14.6645Z" fill="white"/>
</svg>
