<svg width="27" height="27" viewBox="0 0 27 27" fill="none" xmlns="http://www.w3.org/2000/svg">
<path d="M7.35508 9.19957C7.35508 8.87961 7.41811 8.56278 7.54055 8.26717C7.66299 7.97157 7.84246 7.70297 8.06871 7.47673C8.29496 7.25048 8.56355 7.07101 8.85915 6.94857C9.15476 6.82612 9.47159 6.7631 9.79155 6.7631C10.1115 6.7631 10.4283 6.82612 10.7239 6.94857C11.0195 7.07101 11.2881 7.25048 11.5144 7.47673C11.7406 7.70297 11.9201 7.97157 12.0425 8.26717C12.165 8.56278 12.228 8.87961 12.228 9.19957C12.228 9.84576 11.9713 10.4655 11.5144 10.9224C11.0575 11.3793 10.4377 11.636 9.79155 11.636C9.14536 11.636 8.52563 11.3793 8.06871 10.9224C7.61178 10.4655 7.35508 9.84576 7.35508 9.19957ZM9.79155 5.13879C8.71457 5.13879 7.68169 5.56662 6.92015 6.32817C6.15861 7.08971 5.73078 8.12258 5.73078 9.19957C5.73078 10.2766 6.15861 11.3094 6.92015 12.071C7.68169 12.8325 8.71457 13.2603 9.79155 13.2603C10.8685 13.2603 11.9014 12.8325 12.6629 12.071C13.4245 11.3094 13.8523 10.2766 13.8523 9.19957C13.8523 8.12258 13.4245 7.08971 12.6629 6.32817C11.9014 5.56662 10.8685 5.13879 9.79155 5.13879ZM17.9131 10.0117C17.9131 9.58093 18.0842 9.16778 18.3888 8.86316C18.6935 8.55854 19.1066 8.38741 19.5374 8.38741C19.9682 8.38741 20.3813 8.55854 20.686 8.86316C20.9906 9.16778 21.1617 9.58093 21.1617 10.0117C21.1617 10.4425 20.9906 10.8557 20.686 11.1603C20.3813 11.4649 19.9682 11.636 19.5374 11.636C19.1066 11.636 18.6935 11.4649 18.3888 11.1603C18.0842 10.8557 17.9131 10.4425 17.9131 10.0117ZM19.5374 6.7631C18.6758 6.7631 17.8495 7.10537 17.2403 7.7146C16.6311 8.32384 16.2888 9.15013 16.2888 10.0117C16.2888 10.8733 16.6311 11.6996 17.2403 12.3088C17.8495 12.9181 18.6758 13.2603 19.5374 13.2603C20.399 13.2603 21.2253 12.9181 21.8345 12.3088C22.4438 11.6996 22.786 10.8733 22.786 10.0117C22.786 9.15013 22.4438 8.32384 21.8345 7.7146C21.2253 7.10537 20.399 6.7631 19.5374 6.7631ZM3.29431 17.3211C3.29431 16.6749 3.55101 16.0552 4.00794 15.5983C4.46486 15.1413 5.08459 14.8847 5.73078 14.8846H13.8523C14.4985 14.8847 15.1182 15.1413 15.5752 15.5983C16.0321 16.0552 16.2888 16.6749 16.2888 17.3211V17.503C16.2871 17.5774 16.2816 17.6517 16.2725 17.7256C16.18 18.513 15.8869 19.2636 15.4214 19.9054C14.5329 21.1317 12.8436 22.194 9.79155 22.194C6.7411 22.194 5.05181 21.1317 4.16007 19.9054C3.69513 19.2634 3.40264 18.5129 3.31055 17.7256C3.30247 17.6516 3.29705 17.5774 3.29431 17.503V17.3211ZM4.91862 17.4673V17.4787L4.92512 17.5583C4.98802 18.0611 5.17686 18.5399 5.47413 18.9503C6.00366 19.678 7.15692 20.5697 9.79155 20.5697C12.4262 20.5697 13.5794 19.678 14.109 18.9503C14.4062 18.5399 14.5951 18.0611 14.658 17.5583C14.6609 17.5313 14.6631 17.5042 14.6645 17.477V17.3211C14.6645 17.1057 14.5789 16.8991 14.4266 16.7468C14.2743 16.5945 14.0677 16.509 13.8523 16.509H5.73078C5.51538 16.509 5.3088 16.5945 5.1565 16.7468C5.00419 16.8991 4.91862 17.1057 4.91862 17.3211V17.4673ZM19.5374 20.5697C18.5823 20.5697 17.7994 20.4235 17.1659 20.1831C17.4263 19.7062 17.6234 19.1972 17.7523 18.6693C18.1876 18.8333 18.7659 18.9454 19.5374 18.9454C21.355 18.9454 22.1006 18.3249 22.4287 17.8636C22.6205 17.5946 22.7422 17.2819 22.7828 16.954L22.786 16.9085C22.7843 16.802 22.7408 16.7003 22.6648 16.6256C22.5888 16.5508 22.4865 16.5089 22.3799 16.509H17.8319C17.712 15.9199 17.4623 15.365 17.1009 14.8846L22.3799 14.8846C23.5007 14.8846 24.4103 15.7943 24.4103 16.915V16.9426C24.4084 17.0018 24.4041 17.0609 24.3973 17.1197C24.3285 17.7285 24.1061 18.3098 23.7509 18.809C23.0654 19.7689 21.7806 20.5697 19.5374 20.5697Z" fill="white"/>
</svg>
