<svg width="39" height="39" viewBox="0 0 39 39" fill="none" xmlns="http://www.w3.org/2000/svg">
<circle cx="19.491" cy="19.3407" r="18.6012" fill="#847234" fill-opacity="0.2" stroke="#B7DCFF" stroke-width="0.953908" stroke-dasharray="5.72 5.72"/>
<path d="M18.6937 20.0123H16.2555V22.4848H15.2825V20.0123H12.8558V19.1309H15.2825V16.6469H16.2555V19.1309H18.6937V20.0123ZM25.6605 16.3836H21.6426V18.9935C21.8182 18.7493 22.0776 18.5509 22.421 18.3983C22.7644 18.238 23.1345 18.1579 23.5314 18.1579C24.1648 18.1579 24.6799 18.2914 25.0767 18.5585C25.4735 18.818 25.7559 19.1576 25.9238 19.5773C26.0993 19.9894 26.1871 20.4282 26.1871 20.8937C26.1871 21.4431 26.084 21.9354 25.878 22.3703C25.6719 22.8053 25.3552 23.1487 24.9279 23.4006C24.5082 23.6524 23.9854 23.7783 23.3597 23.7783C22.5584 23.7783 21.9097 23.5723 21.4137 23.1602C20.9177 22.7481 20.6162 22.1986 20.5094 21.5118H21.5282C21.6274 21.9468 21.8372 22.2864 22.1577 22.5306C22.4783 22.7748 22.8827 22.8969 23.3711 22.8969C23.974 22.8969 24.428 22.7176 24.7333 22.3589C25.0385 21.9926 25.1912 21.5118 25.1912 20.9166C25.1912 20.3213 25.0385 19.8635 24.7333 19.543C24.428 19.2148 23.9778 19.0507 23.3826 19.0507C22.9781 19.0507 22.6233 19.1499 22.318 19.3484C22.0204 19.5391 21.8029 19.8024 21.6655 20.1382H20.6811V15.4679H25.6605V16.3836Z" fill="#B7DCFF"/>
</svg>
