<svg width="27" height="27" viewBox="0 0 27 27" fill="none" xmlns="http://www.w3.org/2000/svg">
<path fill-rule="evenodd" clip-rule="evenodd" d="M5.70949 2.06421H5.62286C5.2261 2.06421 4.88478 2.06421 4.58331 2.13525C4.11661 2.24676 3.68989 2.48531 3.35044 2.82445C3.01099 3.1636 2.77206 3.5901 2.66012 4.0567C2.59082 4.35817 2.59082 4.69776 2.59082 5.09625L2.59082 9.42774C2.59082 9.82451 2.59082 10.1658 2.66186 10.4673C2.77338 10.934 3.01192 11.3607 3.35107 11.7002C3.69021 12.0396 4.11671 12.2785 4.58331 12.3905C4.88478 12.4598 5.22437 12.4598 5.62286 12.4598H9.95436C10.3511 12.4598 10.6924 12.4598 10.9939 12.3888C11.4606 12.2772 11.8873 12.0387 12.2268 11.6995C12.5662 11.3604 12.8052 10.9339 12.9171 10.4673C12.9864 10.1658 12.9864 9.82624 12.9864 9.42774V5.09625C12.9864 4.69949 12.9864 4.35817 12.9154 4.0567C12.8038 3.59 12.5653 3.16328 12.2262 2.82383C11.887 2.48438 11.4605 2.24545 10.9939 2.13351C10.6924 2.06421 10.3529 2.06421 9.95436 2.06421L5.70949 2.06421ZM4.987 3.82106C5.0615 3.80374 5.17759 3.79681 5.70949 3.79681L9.86773 3.79681C10.4014 3.79681 10.5157 3.802 10.5902 3.82106C10.7459 3.85828 10.8881 3.93788 11.0013 4.05104C11.1145 4.1642 11.1941 4.30648 11.2313 4.46212C11.2486 4.53489 11.2538 4.64924 11.2538 5.18288V9.34111C11.2538 9.87475 11.2486 9.98911 11.2295 10.0636C11.1923 10.2192 11.1127 10.3615 10.9996 10.4747C10.8864 10.5878 10.7441 10.6674 10.5885 10.7047C10.5175 10.7203 10.4031 10.7272 9.86773 10.7272H5.70949C5.17585 10.7272 5.0615 10.722 4.987 10.7029C4.83136 10.6657 4.68907 10.5861 4.57592 10.473C4.46276 10.3598 4.38316 10.2175 4.34594 10.0619C4.33035 9.99084 4.32342 9.87649 4.32342 9.34111V5.18288C4.32342 4.64924 4.32861 4.53489 4.34767 4.46039C4.38489 4.30475 4.46449 4.16246 4.57765 4.04931C4.69081 3.93615 4.8331 3.85655 4.98873 3.81933L4.987 3.82106ZM17.8377 2.06421H17.751C17.3543 2.06421 17.013 2.06421 16.7115 2.13525C16.2448 2.24676 15.8181 2.48531 15.4786 2.82445C15.1392 3.1636 14.9002 3.5901 14.7883 4.0567C14.719 4.35817 14.719 4.69776 14.719 5.09625V9.42774C14.719 9.82451 14.719 10.1658 14.79 10.4673C14.9016 10.934 15.1401 11.3607 15.4792 11.7002C15.8184 12.0396 16.2449 12.2785 16.7115 12.3905C17.013 12.4598 17.3525 12.4598 17.751 12.4598L22.0825 12.4598C22.4793 12.4598 22.8206 12.4598 23.1221 12.3888C23.5888 12.2772 24.0155 12.0387 24.355 11.6995C24.6944 11.3604 24.9333 10.9339 25.0453 10.4673C25.1146 10.1658 25.1146 9.82624 25.1146 9.42774V5.09625C25.1146 4.69949 25.1146 4.35817 25.0435 4.0567C24.932 3.59 24.6935 3.16328 24.3543 2.82383C24.0152 2.48438 23.5887 2.24545 23.1221 2.13351C22.8206 2.06421 22.481 2.06421 22.0825 2.06421H17.8377ZM17.1152 3.82106C17.1897 3.80374 17.3058 3.79681 17.8377 3.79681H21.9959C22.5295 3.79681 22.6439 3.802 22.7184 3.82106C22.874 3.85828 23.0163 3.93788 23.1295 4.05104C23.2426 4.1642 23.3222 4.30648 23.3595 4.46212C23.3768 4.53489 23.382 4.64924 23.382 5.18288V9.34111C23.382 9.87475 23.3751 9.98911 23.3577 10.0636C23.3205 10.2192 23.2409 10.3615 23.1277 10.4747C23.0146 10.5878 22.8723 10.6674 22.7167 10.7047C22.6439 10.722 22.5295 10.7272 21.9959 10.7272L17.8377 10.7272C17.304 10.7272 17.1897 10.722 17.1152 10.7029C16.9595 10.6657 16.8173 10.5861 16.7041 10.473C16.5909 10.3598 16.5113 10.2175 16.4741 10.0619C16.4585 9.99084 16.4516 9.87649 16.4516 9.34111V5.18288C16.4516 4.64924 16.4568 4.53489 16.4759 4.46039C16.5131 4.30475 16.5927 4.16246 16.7058 4.04931C16.819 3.93615 16.9613 3.85655 17.1169 3.81933L17.1152 3.82106ZM5.62286 14.1924H9.95436C10.3511 14.1924 10.6924 14.1924 10.9939 14.2634C11.4606 14.3749 11.8873 14.6135 12.2268 14.9526C12.5662 15.2918 12.8052 15.7183 12.9171 16.1849C12.9864 16.4863 12.9864 16.8259 12.9864 17.2244L12.9864 21.5559C12.9864 21.9527 12.9864 22.294 12.9154 22.5955C12.8038 23.0622 12.5653 23.4889 12.2262 23.8283C11.887 24.1678 11.4605 24.4067 10.9939 24.5187C10.6924 24.588 10.3529 24.588 9.95436 24.588H5.62286C5.2261 24.588 4.88478 24.588 4.58331 24.5169C4.11661 24.4054 3.68989 24.1669 3.35044 23.8277C3.01099 23.4886 2.77206 23.0621 2.66012 22.5955C2.59082 22.294 2.59082 21.9544 2.59082 21.5559V17.2244C2.59082 16.8277 2.59082 16.4863 2.66186 16.1849C2.77338 15.7182 3.01192 15.2915 3.35107 14.952C3.69021 14.6126 4.11671 14.3736 4.58331 14.2617C4.88478 14.1924 5.22437 14.1924 5.62286 14.1924ZM5.70949 15.925C5.17585 15.925 5.0615 15.9302 4.987 15.9492C4.83136 15.9865 4.68907 16.0661 4.57592 16.1792C4.46276 16.2924 4.38316 16.4347 4.34594 16.5903C4.33035 16.6613 4.32342 16.7757 4.32342 17.3111V21.4693C4.32342 22.0029 4.32861 22.1173 4.34767 22.1918C4.38489 22.3474 4.46449 22.4897 4.57765 22.6029C4.69081 22.716 4.8331 22.7956 4.98873 22.8328C5.0615 22.8502 5.17585 22.8554 5.70949 22.8554H9.86773C10.4014 22.8554 10.5157 22.8484 10.5902 22.8311C10.7459 22.7939 10.8881 22.7143 11.0013 22.6011C11.1145 22.488 11.1941 22.3457 11.2313 22.1901C11.2486 22.1173 11.2538 22.0029 11.2538 21.4693L11.2538 17.3111C11.2538 16.7774 11.2486 16.6631 11.2295 16.5886C11.1923 16.4329 11.1127 16.2906 10.9996 16.1775C10.8864 16.0643 10.7441 15.9847 10.5885 15.9475C10.5175 15.9319 10.4031 15.925 9.86773 15.925H5.70949ZM17.8377 14.1924H17.751C17.3543 14.1924 17.013 14.1924 16.7115 14.2634C16.2448 14.3749 15.8181 14.6135 15.4786 14.9526C15.1392 15.2918 14.9002 15.7183 14.7883 16.1849C14.719 16.4863 14.719 16.8259 14.719 17.2244L14.719 21.5559C14.719 21.9527 14.719 22.294 14.79 22.5955C14.9016 23.0622 15.1401 23.4889 15.4792 23.8283C15.8184 24.1678 16.2449 24.4067 16.7115 24.5187C17.013 24.5897 17.3543 24.5897 17.751 24.5897H22.0825C22.4793 24.5897 22.8206 24.5897 23.1221 24.5187C23.5885 24.4069 24.0148 24.1682 24.3539 23.8291C24.6931 23.4899 24.9317 23.0636 25.0435 22.5972C25.1146 22.2957 25.1146 21.9544 25.1146 21.5577V17.2244C25.1146 16.8277 25.1146 16.4863 25.0435 16.1849C24.932 15.7182 24.6935 15.2915 24.3543 14.952C24.0152 14.6126 23.5887 14.3736 23.1221 14.2617C22.8206 14.1924 22.481 14.1924 22.0825 14.1924L17.8377 14.1924ZM17.1152 15.9492C17.1897 15.9319 17.3058 15.925 17.8377 15.925L21.9959 15.925C22.5295 15.925 22.6439 15.9302 22.7184 15.9492C22.874 15.9865 23.0163 16.0661 23.1295 16.1792C23.2426 16.2924 23.3222 16.4347 23.3595 16.5903C23.3768 16.6631 23.382 16.7774 23.382 17.3111V21.4693C23.382 22.0029 23.3751 22.1173 23.3577 22.1918C23.3205 22.3474 23.2409 22.4897 23.1277 22.6029C23.0146 22.716 22.8723 22.7956 22.7167 22.8328C22.6439 22.8502 22.5295 22.8554 21.9959 22.8554H17.8377C17.304 22.8554 17.1897 22.8484 17.1152 22.8311C16.9595 22.7939 16.8173 22.7143 16.7041 22.6011C16.5909 22.488 16.5113 22.3457 16.4741 22.1901C16.4585 22.119 16.4516 22.0047 16.4516 21.4693V17.3111C16.4516 16.7774 16.4568 16.6631 16.4759 16.5886C16.5131 16.4329 16.5927 16.2906 16.7058 16.1775C16.819 16.0643 16.9613 15.9847 17.1169 15.9475L17.1152 15.9492Z" fill="white"/>
</svg>
