<svg width="66" height="67" viewBox="0 0 66 67" fill="none" xmlns="http://www.w3.org/2000/svg">
<circle cx="33.0789" cy="33.3419" r="26.4406" transform="rotate(-13.9028 33.0789 33.3419)" fill="#418065" style="mix-blend-mode:luminosity"/>
<circle cx="33.0789" cy="33.3419" r="26.4406" transform="rotate(-13.9028 33.0789 33.3419)" stroke="url(#paint0_linear_1_359)" stroke-width="1.12513"/>
<g clip-path="url(#clip0_1_359)">
<path d="M42.7144 32.0387C43.8309 37.8918 40.8657 43.3874 35.0125 44.5039C29.1594 45.6205 24.3794 41.6024 23.2628 35.7493C25.2196 35.3931 27.2386 35.6537 29.0408 36.4952C30.8429 37.3367 32.339 38.7174 33.3222 40.4463L31.7671 32.2943L27.3463 33.1376C26.6428 33.2718 25.9148 33.1211 25.3225 32.7185C24.7302 32.316 24.322 31.6946 24.1878 30.9911L23.1758 25.6862C23.1404 25.5006 23.1643 25.3086 23.2441 25.1374C23.3239 24.9661 23.4555 24.8243 23.6204 24.7321C23.7853 24.6398 23.975 24.6017 24.1626 24.6233C24.3503 24.6448 24.5265 24.7249 24.6661 24.8521L28.0463 27.8726L29.9521 22.0111C30.0086 21.8717 30.0991 21.7487 30.2153 21.6533C30.3316 21.5579 30.4699 21.4931 30.6176 21.465C30.7653 21.4368 30.9178 21.4461 31.061 21.492C31.2042 21.5379 31.3336 21.6189 31.4375 21.7277L35.3672 26.4761L37.3981 22.4233C37.4811 22.2536 37.6154 22.1144 37.782 22.0253C37.9485 21.9361 38.1389 21.9017 38.3262 21.9268C38.5134 21.9519 38.688 22.0353 38.8252 22.1651C38.9625 22.2949 39.0553 22.4647 39.0907 22.6502L40.1027 27.9552C40.2369 28.6587 40.0862 29.3867 39.6836 29.979C39.2811 30.5713 38.6597 30.9795 37.9562 31.1137L33.5354 31.957L35.0905 40.109C35.3681 38.1395 36.2509 36.305 37.6167 34.8592C38.9825 33.4135 40.7639 32.4278 42.7144 32.0387Z" fill="white" fill-opacity="0.941176"/>
</g>
<defs>
<linearGradient id="paint0_linear_1_359" x1="9.8592" y1="6.33877" x2="35.5898" y2="65.5747" gradientUnits="userSpaceOnUse">
<stop stop-color="white" stop-opacity="0.4"/>
<stop offset="0.405687" stop-color="white" stop-opacity="0.01"/>
<stop offset="0.574372" stop-color="white" stop-opacity="0.01"/>
<stop offset="1" stop-color="white" stop-opacity="0.1"/>
</linearGradient>
<clipPath id="clip0_1_359">
<rect width="27.0031" height="27.0031" fill="white" transform="translate(17.0271 22.2774) rotate(-10.8)"/>
</clipPath>
</defs>
</svg>
