<svg width="69" height="69" viewBox="0 0 69 69" fill="none" xmlns="http://www.w3.org/2000/svg">
<circle cx="34.7726" cy="34.5265" r="26.4406" transform="rotate(-17.4796 34.7726 34.5265)" fill="#418065" style="mix-blend-mode:luminosity"/>
<circle cx="34.7726" cy="34.5265" r="26.4406" transform="rotate(-17.4796 34.7726 34.5265)" stroke="url(#paint0_linear_1_342)" stroke-width="1.12513"/>
<g clip-path="url(#clip0_1_342)">
<path fill-rule="evenodd" clip-rule="evenodd" d="M25.4753 41.176C26.0081 39.8442 27.6401 39.573 28.6451 40.4522C30.0064 41.6438 31.7912 42.7019 34.1895 42.2444C36.6309 41.7787 37.9287 40.4097 38.6983 38.83C39.2912 37.615 40.9889 37.1113 42.0632 38.2156C42.9543 39.128 43.86 39.8052 45.3878 39.8699C45.4989 39.8741 45.6081 39.9002 45.7091 39.9467C45.8101 39.9932 45.9009 40.0593 45.9763 40.141C46.0517 40.2227 46.1102 40.3185 46.1484 40.4229C46.1867 40.5274 46.2039 40.6383 46.1992 40.7494C46.1944 40.8605 46.1677 40.9695 46.1207 41.0703C46.0736 41.171 46.0071 41.2615 45.925 41.3364C45.8429 41.4114 45.7467 41.4694 45.6421 41.5071C45.5375 41.5448 45.4265 41.5614 45.3154 41.5561C43.1766 41.4647 41.8899 40.4536 40.8549 39.3933C40.8163 39.3527 40.7675 39.3231 40.7136 39.3076C40.6597 39.2921 40.6026 39.2913 40.5483 39.3052C40.4762 39.3214 40.4088 39.3538 40.3511 39.3999C40.2934 39.446 40.247 39.5047 40.2154 39.5715C39.2556 41.5414 37.5561 43.3203 34.5058 43.9022C31.3648 44.5013 29.0639 43.0618 27.5334 41.7215C27.494 41.6846 27.4465 41.6576 27.3946 41.6426C27.3428 41.6276 27.2882 41.6251 27.2352 41.6352C27.1913 41.6441 27.1506 41.6642 27.1168 41.6935C27.0831 41.7228 27.0575 41.7604 27.0426 41.8025C26.4684 43.2362 25.6679 44.7737 23.5916 45.7001C23.4903 45.746 23.3809 45.7714 23.2698 45.7748C23.1586 45.7783 23.0479 45.7598 22.9439 45.7203C22.84 45.6808 22.7448 45.6212 22.664 45.5449C22.5832 45.4685 22.5182 45.3769 22.4729 45.2754C22.4276 45.1739 22.4028 45.0644 22.3999 44.9532C22.397 44.8421 22.4161 44.7314 22.4561 44.6277C22.4962 44.524 22.5563 44.4291 22.6331 44.3487C22.7099 44.2683 22.8018 44.2038 22.9036 44.159C24.3824 43.499 24.962 42.4606 25.4753 41.176Z" fill="white"/>
<path d="M44.3335 34.344C42.8057 34.2792 41.9 33.6021 41.01 32.6894C40.0129 31.6655 38.478 32.0259 37.7897 33.0529L36.2128 31.836L27.476 25.0655C27.1415 24.8182 26.7238 24.7111 26.3116 24.7668C25.8994 24.8225 25.5251 25.0366 25.2682 25.3638C25.0113 25.691 24.892 26.1054 24.9357 26.519C24.9794 26.9327 25.1826 27.3131 25.5021 27.5794L26.8358 28.6445C27.6533 29.2972 26.9073 31.2229 26.9073 31.2229L24.7979 35.0444C24.6374 35.2221 24.5101 35.4272 24.4221 35.6499C23.9086 36.9333 23.3303 37.9726 21.8504 38.6329C21.7486 38.6777 21.6567 38.7421 21.5799 38.8226C21.5031 38.903 21.443 38.9978 21.403 39.1015C21.3629 39.2053 21.3438 39.3159 21.3467 39.4271C21.3496 39.5382 21.3744 39.6477 21.4197 39.7492C21.465 39.8508 21.53 39.9424 21.6108 40.0187C21.6917 40.0951 21.7868 40.1547 21.8907 40.1942C21.9947 40.2336 22.1054 40.2521 22.2166 40.2487C22.3277 40.2452 22.4371 40.2198 22.5384 40.1739C24.6147 39.2475 25.4153 37.71 25.9894 36.2764C26.0043 36.2342 26.0299 36.1967 26.0636 36.1673C26.0974 36.138 26.1382 36.1179 26.182 36.1091C26.235 36.0989 26.2896 36.1014 26.3414 36.1164C26.3933 36.1314 26.4408 36.1585 26.4802 36.1954C28.0096 37.5358 30.3105 38.9754 33.4515 38.3762C36.5018 37.7943 38.2002 36.0157 39.1611 34.0455C39.1927 33.9788 39.2391 33.9201 39.2968 33.8739C39.3545 33.8278 39.422 33.7954 39.494 33.7793C39.5482 33.7652 39.6052 33.7659 39.659 33.7812C39.7129 33.7965 39.7617 33.8259 39.8004 33.8663C40.8358 34.9287 42.1223 35.9387 44.2611 36.0301C44.484 36.0385 44.7011 35.9583 44.865 35.8071C45.0289 35.6558 45.1263 35.4459 45.1359 35.223C45.1454 35.0002 45.0664 34.7827 44.916 34.618C44.7657 34.4532 44.5562 34.3547 44.3335 34.344ZM37.1327 27.6516C37.8655 27.5118 38.5128 27.0866 38.9321 26.4696C39.3514 25.8526 39.5084 25.0943 39.3687 24.3615C39.2289 23.6287 38.8037 22.9814 38.1867 22.5621C37.5697 22.1428 36.8114 21.9858 36.0786 22.1256C35.3458 22.2653 34.6985 22.6905 34.2792 23.3075C33.8599 23.9245 33.7029 24.6828 33.8427 25.4156C33.9824 26.1484 34.4076 26.7957 35.0246 27.215C35.6416 27.6343 36.3999 27.7914 37.1327 27.6516Z" fill="white"/>
</g>
<defs>
<linearGradient id="paint0_linear_1_342" x1="11.5529" y1="7.52334" x2="37.2835" y2="66.7593" gradientUnits="userSpaceOnUse">
<stop stop-color="white" stop-opacity="0.4"/>
<stop offset="0.405687" stop-color="white" stop-opacity="0.01"/>
<stop offset="0.574372" stop-color="white" stop-opacity="0.01"/>
<stop offset="1" stop-color="white" stop-opacity="0.1"/>
</linearGradient>
<clipPath id="clip0_1_342">
<rect width="27.0031" height="27.0031" fill="white" transform="translate(16.6582 22.394) rotate(-10.8)"/>
</clipPath>
</defs>
</svg>
