<svg width="151" height="79" viewBox="0 0 151 79" fill="none" xmlns="http://www.w3.org/2000/svg">
<path d="M74.6642 0.384471C75.1947 0.140448 75.8053 0.140446 76.3358 0.38447L132.587 26.2599C134.537 27.1567 133.897 30.0769 131.751 30.0769H19.2487C17.1028 30.0769 16.4634 27.1567 18.4129 26.2599L74.6642 0.384471Z" fill="#FFC876"/>
<path d="M74.6642 6.2819C75.1947 6.03788 75.8053 6.03788 76.3358 6.2819L132.587 32.1574C134.537 33.0542 133.897 35.9744 131.751 35.9744H19.2487C17.1028 35.9744 16.4634 33.0542 18.4129 32.1574L74.6642 6.2819Z" fill="#0A0A0A"/>
<g filter="url(#filter0_d_65_679)">
<path d="M30.888 32.4H36.436V59H30.888V32.4ZM39.932 59H34.384V54.06H39.742C40.9073 54.06 42.0093 53.908 43.048 53.604C44.0867 53.2747 44.9987 52.768 45.784 52.084C46.5693 51.4 47.1773 50.5387 47.608 49.5C48.064 48.436 48.292 47.1693 48.292 45.7C48.292 44.2307 48.064 42.9767 47.608 41.938C47.1773 40.874 46.5693 40 45.784 39.316C44.9987 38.632 44.0867 38.138 43.048 37.834C42.0093 37.5047 40.9073 37.34 39.742 37.34H34.384V32.4H39.932C42.7187 32.4 45.1507 32.9447 47.228 34.034C49.3307 35.1233 50.9647 36.6687 52.13 38.67C53.2953 40.646 53.878 42.9893 53.878 45.7C53.878 48.4107 53.2953 50.7667 52.13 52.768C50.9647 54.744 49.3307 56.2767 47.228 57.366C45.1507 58.4553 42.7187 59 39.932 59ZM64.7162 50.255L65.6512 44.04H84.1312L85.0662 50.255H64.7162ZM74.7812 32.985L69.0062 46.24L69.1712 48L64.1112 59H55.2562L74.7812 18.245L94.3062 59H85.3962L80.4462 48.33L80.5562 46.35L74.7812 32.985ZM103.233 46.612H108.971L117.635 59H111.213L103.233 46.612ZM97.1907 32.4H102.625V59H97.1907V32.4ZM100.497 37.036V32.4H106.121C108.223 32.4 110.009 32.7547 111.479 33.464C112.948 34.1733 114.075 35.1613 114.861 36.428C115.646 37.6947 116.039 39.1767 116.039 40.874C116.039 42.546 115.646 44.028 114.861 45.32C114.075 46.5867 112.948 47.5747 111.479 48.284C110.009 48.9933 108.223 49.348 106.121 49.348H100.497V45.016H105.779C106.741 45.016 107.565 44.864 108.249 44.56C108.958 44.2307 109.503 43.7747 109.883 43.192C110.263 42.584 110.453 41.862 110.453 41.026C110.453 40.19 110.263 39.4807 109.883 38.898C109.503 38.29 108.958 37.834 108.249 37.53C107.565 37.2007 106.741 37.036 105.779 37.036H100.497ZM120.755 32.4H126.265V59H120.755V32.4Z" fill="white"/>
</g>
<path d="M121.643 5.1L124.429 10.2L126.286 0L128.726 11.1697C129.381 14.1658 127.099 17 124.032 17V17C120.65 17 118.327 13.5993 119.556 10.4488L121.643 5.1Z" fill="white"/>
<defs>
<filter id="filter0_d_65_679" x="26.8879" y="18.245" width="103.377" height="48.755" filterUnits="userSpaceOnUse" color-interpolation-filters="sRGB">
<feFlood flood-opacity="0" result="BackgroundImageFix"/>
<feColorMatrix in="SourceAlpha" type="matrix" values="0 0 0 0 0 0 0 0 0 0 0 0 0 0 0 0 0 0 127 0" result="hardAlpha"/>
<feOffset dy="4"/>
<feGaussianBlur stdDeviation="2"/>
<feComposite in2="hardAlpha" operator="out"/>
<feColorMatrix type="matrix" values="0 0 0 0 0 0 0 0 0 0 0 0 0 0 0 0 0 0 0.25 0"/>
<feBlend mode="normal" in2="BackgroundImageFix" result="effect1_dropShadow_65_679"/>
<feBlend mode="normal" in="SourceGraphic" in2="effect1_dropShadow_65_679" result="shape"/>
</filter>
</defs>
</svg>
